<svg width="217" height="80" viewBox="0 0 217 80" fill="none" xmlns="http://www.w3.org/2000/svg">
<path d="M130.38 11.76H150.24V16.06H142.95V34.53H137.67V16.06H130.38V11.76Z" fill="white"/>
<path d="M107.72 17.08C111.66 10.2 123.15 9.38 128.18 15.3L124.79 18.42C123.16 16.71 121.2 15.85 118.9 15.85C116.6 15.85 116.15 16.15 115.03 16.76C113.9 17.37 113.02 18.23 112.39 19.33C111.14 21.45 111.14 24.79 112.39 26.92C114.39 30.57 119.43 31.33 122.95 29.46V22.78H127.77V32.03C123.52 35.2 116.83 35.94 112.18 33.41C106.31 30.44 104.42 22.59 107.74 17.07H107.72V17.08Z" fill="white"/>
<path d="M84.6399 34.54H102.29V30.31H89.8899V25.04H100.47V20.94H89.8899V15.99H101.87V11.76H84.6499V34.54H84.6399Z" fill="white"/>
<path d="M146.8 41.4H151.65V62.46H146.8V41.4Z" fill="white"/>
<path d="M174.04 45.38H167.33V62.46H162.47V45.38H155.77V41.4H174.04V45.38Z" fill="white"/>
<path d="M216.92 62.46H201.55V41.4H206.4V58.48H216.92V62.46Z" fill="white"/>
<path d="M122.37 46.32C126 39.98 136.58 39.23 141.2 44.69L138.09 47.58C136.59 46 134.78 45.21 132.67 45.21C130.56 45.21 130.14 45.49 129.11 46.05C128.07 46.61 127.27 47.41 126.68 48.42C125.53 50.38 125.52 53.48 126.68 55.44C128.51 58.81 133.16 59.51 136.39 57.79V51.63H140.83V60.17C136.92 63.1 130.77 63.77 126.48 61.45C121.05 58.69 119.36 51.48 122.39 46.36V46.34H122.38L122.37 46.32Z" fill="white"/>
<path d="M110.88 41.4H115.73V62.46H110.88V41.4Z" fill="white"/>
<path d="M188.49 41.4H183.7L174.36 62.46H179.33L181.19 57.95H190.93L192.79 62.46H197.88L188.5 41.4H188.49ZM182.71 54.2L186.04 46.15L189.37 54.2H182.72H182.71Z" fill="white"/>
<path d="M104.27 46.4C102.15 42.96 98.3199 41.4 94.1599 41.41H84.6299V62.47H94.1599C96.4299 62.47 98.4399 62.03 100.2 61.16C101.95 60.29 103.3 59.06 104.27 57.48C106.2 54.45 106.21 49.44 104.27 46.41V46.4ZM98.6299 56.83C97.3899 58.02 95.7299 58.62 93.6399 58.65L89.1999 58.7L89.0499 45.65L93.4899 45.6C95.5899 45.58 97.2699 46.13 98.5299 47.3C101.05 49.43 101.13 54.65 98.6499 56.84H98.6399L98.6299 56.83Z" fill="white"/>
<path d="M72.7901 51.53C65.6101 55.65 57.1201 59.41 48.1001 62.45C35.1001 66.78 22.4701 68.83 11.8701 68.83C22.2501 78.81 37.5001 82.73 52.0201 78.03C66.3201 73.32 76.1901 61.47 79.0201 47.94" fill="white"/>
<path d="M78.8301 32.71H72.8101V48.85C75.0501 47.7 77.1501 46.4 79.2101 45.09C79.7801 40.97 79.5901 36.83 78.8301 32.71Z" fill="white"/>
<path d="M77.72 28.43C77.72 28.22 77.72 28.05 77.51 27.7C75.62 21.84 72.44 16.62 68.45 12.5C60.54 13.06 51.67 14.74 42.61 17.77C33.55 20.81 25.47 24.36 18.87 28.47H32.44V32.8H20.17V37.86H31.12V41.98H20.17V47.41H32.8V51.74H14.73V31.25C4.71996 38.21 -0.520044 46.09 1.36996 52.31C4.76996 63.01 28.89 64.69 55.09 56.29C59.43 54.97 63.37 53.25 67.36 51.58V32.71H59.81V28.38H77.75V28.43H77.73H77.72ZM41.35 44.05C41.92 45.2 42.86 46.14 43.97 46.66C45.08 47.18 46.42 47.6 47.96 47.6C49.5 47.6 51 47.22 52.09 46.66V39.86H57.02V49.27C55.7 50.21 54.19 50.94 52.68 51.51C51 52.07 49.28 52.24 47.61 52.24C45.16 52.24 43.1 51.68 41 50.73C39.11 49.79 37.6 48.28 36.49 46.4C35.38 44.52 34.81 42.42 34.81 40.19C34.81 37.96 35.38 35.86 36.49 33.98C37.6 32.1 39.11 30.8 41 29.65C42.89 28.71 45.13 28.14 47.61 28.14C50.09 28.14 51.6 28.52 53.27 29.08C54.95 29.81 56.31 30.75 57.4 32.12L54 35.3C52.32 33.63 50.22 32.69 47.98 32.69C45.74 32.69 45.15 33.07 43.99 33.63C42.83 34.19 41.89 35.14 41.37 36.24C40.85 37.34 40.43 38.69 40.43 40.22C40.43 41.75 40.81 43.04 41.37 44.2V44.11L41.35 44.06V44.05Z" fill="white"/>
<path d="M33.02 16.94C45.08 12.96 56.6 10.94 66.56 10.73C56.39 1.15999 41.3 -2.61001 27.14 1.88999C12.46 6.79999 2.45 19.04 0 32.92C8.5 26.71 19.97 21.06 33.02 16.78V16.94Z" fill="white"/>
</svg>
